<?xml version="1.0" encoding="utf-8"?>
<!-- Generator: Adobe Illustrator 22.0.1, SVG Export Plug-In . SVG Version: 6.00 Build 0)  -->
<svg version="1.1"
	 id="Warstwa_1" xmlns:cc="http://creativecommons.org/ns#" xmlns:dc="http://purl.org/dc/elements/1.1/" xmlns:rdf="http://www.w3.org/1999/02/22-rdf-syntax-ns#" xmlns:svg="http://www.w3.org/2000/svg"
	 xmlns="http://www.w3.org/2000/svg" xmlns:xlink="http://www.w3.org/1999/xlink" x="0px" y="0px" viewBox="0 0 205.8 205.8"
	 style="enable-background:new 0 0 205.8 205.8;" xml:space="preserve">
<style type="text/css">
	.st0{fill:none;}
	.st1{fill:#FFFFFF;}
	.st2{fill:#F8F8F9;}
</style>
<path id="path4" class="st0" d="M130.6,205.8c-9.1,0-18.1,0-27.2,0c3.7-2.2,4.6-5.7,4.5-9.8c-0.2-6.5,0-13.1,0-19.6
	c0-8.9-1.5-10.6-10.3-10.6c-2.5,0-3.1-0.7-3.1-3.1c0.2-8,0.3-16-0.1-24c-0.2-3.7,1.1-4.3,4.4-4.2c6.6,0.2,9-2.2,9-8.7
	c0.1-7.6,0.1-15.2,0-22.8c-0.1-6.1-2.4-8.4-8.5-8.4c-21.1,0-42.1,0-63.2,0c-6.1,0-8.4,2.3-8.5,8.5c-0.1,7.1,0,14.1,0,21.2
	c0,8.4,1.8,10.4,10.3,10.3c2.9,0,3.1,1.1,3.1,3.4c-0.1,7.9-0.3,15.7,0,23.6c0.1,3.5-0.8,4.5-4.3,4.3c-6.8-0.3-9.1,2.1-9.1,9
	c0,7.2,0.1,14.4,0,21.6c-0.1,4,1,7.3,4.6,9.4c-9.7,0-19.5-0.1-29.2,0.1c-2.4,0-2.9-0.5-2.9-2.9C0.2,154,0.2,105,0.2,55.9
	c0-18.5,0-37.1,0-55.6c67.5,0,134.9,0,202.4-0.1c2.7,0,3.3,0.5,3.3,3.3c-0.1,55.7-0.1,111.5-0.1,167.2c-1.9-4.1-5.3-5.4-9.5-4.8
	c-3.1,0.4-4-0.7-4-3.9c0.1-22.9,0.1-45.9,0.1-68.8c0-7.6-0.7-15.1-2.6-22.5c-8.1-31.2-37.7-55.3-69.9-56c-24.6-0.5-49.3-0.3-74-0.1
	c-4,0-5.2-0.9-5-5C41.3,3.4,38.7,1,32.7,1C24.8,0.9,17,0.9,9.1,1C3.5,1,1.1,3.5,1,9.1c0,21.3,0,42.7,0,64c0,5.6,2.5,8,8.1,8
	c7.3,0.1,14.7,0,22,0c8.1,0,10-1.7,9.9-9.8c0-2.6,0.5-3.6,3.4-3.6c19.9,0.1,39.7,0,59.6,0.1c5.5,0,10.9,0.8,15.9,3.3
	c13.2,6.8,19.2,17.8,19.2,32.4c0,19.1-0.1,38.1,0.1,57.2c0,4-0.8,5.5-5.1,5.2c-5.9-0.4-8.3,2.2-8.3,8.1c0,7.6,0.2,15.2-0.1,22.8
	C125.5,200.9,126.8,203.9,130.6,205.8z"/>
<path id="path6" class="st1" d="M130.1,205.5c-3.8-1.8-5.1-4.9-5-9.1c0.2-7.6,0-15.2,0.1-22.8c0-5.8,2.4-8.4,8.3-8.1
	c4.3,0.3,5.2-1.2,5.1-5.2c-0.2-19.1-0.1-38.1-0.1-57.2c0-14.6-6-25.6-19.2-32.4c-5-2.5-10.4-3.3-15.9-3.3c-19.9-0.1-39.7,0-59.6-0.1
	c-3,0-3.4,1-3.4,3.6c0.1,8-1.8,9.8-9.9,9.8c-7.3,0-14.7,0-22,0c-5.6,0-8.1-2.4-8.1-8c0-21.3,0-42.7,0-64c0.2-5.5,2.6-8,8.2-8
	c7.9-0.1,15.7,0,23.6,0c6.1,0,8.6,2.4,8.3,8.5c-0.2,4.1,1,5,5,5c24.7-0.2,49.3-0.4,74,0.1c32.2,0.6,61.8,24.7,69.9,56
	c1.9,7.4,2.7,14.9,2.6,22.5c0,22.9,0.1,45.9-0.1,68.8c0,3.2,0.8,4.3,4,3.9c4.2-0.6,7.6,0.8,9.5,4.8c0,9.9,0,19.7,0,29.6
	c-0.9,2.9-2.7,4.7-5.6,5.6C176.5,205.5,153.3,205.5,130.1,205.5z M165.3,94.5c2.1,0,4.3,0,6.4,0c7.7,0,7.7,0,7.2-7.8
	c-2.1-33.5-30.1-59.4-63.6-59.1c-2.2,0-3,0.5-3,2.9c0.1,7.2,0.1,14.4,0,21.6c0,2.1,0.5,2.9,2.7,3.4c19.6,4.7,31.8,16.9,36.4,36.5
	c0.5,2,1.2,2.6,3.1,2.6C158.1,94.4,161.7,94.5,165.3,94.5z M69.6,54.4c8.8,0,17.6-0.1,26.4,0c2.2,0,3.1-0.5,3-2.8
	c-0.1-7.1-0.1-14.1,0-21.2c0-2.4-0.8-2.9-3-2.9c-17.3,0.1-34.7,0.1-52,0c-2.2,0-3,0.5-3,2.9c0.1,7.1,0.2,14.1,0,21.2
	c-0.1,2.4,0.8,2.9,3,2.8C52.5,54.4,61.1,54.4,69.6,54.4z M152.3,136.7c0,8.7,0.1,17.3-0.1,26c0,2.5,0.7,3.1,3.1,3.1
	c6.9-0.2,13.9-0.1,20.8,0c2.2,0,3-0.5,3-2.8c-0.1-17.3-0.1-34.7,0-52c0-2.5-0.7-3.2-3.2-3.1c-6.8,0.2-13.6,0.2-20.4,0
	c-2.6-0.1-3.4,0.6-3.4,3.3C152.5,119.6,152.3,128.2,152.3,136.7z M14.5,40.5c0,5.9,0,11.7,0,17.6c0,9.7,0,9.5,9.7,9.6
	c2.7,0,3.6-0.6,3.6-3.5c-0.2-13.3-0.1-26.7-0.1-40c0-10.1,0-10-10.2-10c-2.4,0-3.2,0.5-3.1,3C14.6,25.1,14.5,32.8,14.5,40.5z
	 M165.8,192.3c5.5,0,10.9,0,16.4,0c10.4,0,10.3,0,10.3-10.3c0-2.6-0.9-3-3.2-3c-13.5,0.1-26.9,0.1-40.4,0.1c-9.9,0-9.8,0-9.9,9.9
	c0,3,1,3.5,3.6,3.4C150.4,192.2,158.1,192.3,165.8,192.3z"/>
<path id="path8" class="st1" d="M32.2,205.8c-3.6-2.1-4.6-5.4-4.6-9.4c0.1-7.2,0-14.4,0-21.6c0-6.8,2.3-9.3,9.1-9
	c3.5,0.2,4.5-0.8,4.3-4.3c-0.3-7.9-0.2-15.7,0-23.6c0-2.4-0.2-3.5-3.1-3.4c-8.5,0.1-10.3-1.8-10.3-10.3c0-7.1-0.1-14.1,0-21.2
	c0.1-6.2,2.4-8.5,8.5-8.5c21.1,0,42.1,0,63.2,0c6.1,0,8.4,2.3,8.5,8.4c0.1,7.6,0.1,15.2,0,22.8c-0.1,6.5-2.5,9-9,8.7
	c-3.3-0.1-4.6,0.5-4.4,4.2c0.4,8,0.2,16,0.1,24c0,2.4,0.5,3.1,3.1,3.1c8.8,0,10.3,1.6,10.3,10.6c0,6.5-0.1,13.1,0,19.6
	c0.1,4.1-0.8,7.6-4.5,9.8C79.7,205.8,56,205.8,32.2,205.8z M54.5,149.7c0,4.5,0.1,9,0,13.6c-0.1,2,0.6,2.5,2.5,2.4
	c7.2-0.1,14.4-0.1,21.5,0c1.7,0,2.7-0.2,2.6-2.3c-0.1-8.9-0.1-17.8,0-26.7c0-1.8-0.6-2.2-2.3-2.2c-7.3,0.1-14.6,0.1-21.9,0
	c-2,0-2.5,0.6-2.4,2.5C54.6,141.2,54.5,145.5,54.5,149.7z M67.8,121.1c5.7,0,11.5,0,17.2,0c9.6,0,9.5,0,9.6-9.7
	c0.1-3.3-1.1-3.6-3.9-3.6c-13.2,0.1-26.4,0.1-39.6,0.1c-10.4,0-10.3,0-10.2,10.3c0,2.7,1,3,3.3,2.9C52.1,121,60,121.1,67.8,121.1z
	 M67.4,192.3c5.9,0,11.7,0,17.6,0c9.6,0,9.5,0,9.6-9.7c0.1-3.3-1.2-3.6-3.9-3.6c-13.2,0.1-26.4,0.1-39.6,0.1
	c-10.4,0-10.3,0-10.2,10.3c0,2.7,1,3,3.3,2.9C52,192.3,59.7,192.3,67.4,192.3z"/>
<path id="path10" class="st2" d="M200.2,205.8c2.9-0.9,4.7-2.7,5.6-5.6C205.8,205.8,205.8,205.8,200.2,205.8z"/>
<path id="path12" class="st0" d="M165.3,94.5c-3.6,0-7.2-0.1-10.8,0c-2,0.1-2.7-0.6-3.1-2.6c-4.6-19.6-16.8-31.8-36.4-36.5
	c-2.2-0.5-2.8-1.3-2.7-3.4c0.1-7.2,0.1-14.4,0-21.6c0-2.3,0.7-2.9,3-2.9c33.6-0.4,61.5,25.5,63.6,59.1c0.5,7.8,0.5,7.8-7.2,7.8
	C169.5,94.5,167.4,94.5,165.3,94.5z"/>
<path id="path14" class="st0" d="M69.6,54.4c-8.5,0-17.1-0.1-25.6,0c-2.2,0-3-0.5-3-2.8c0.2-7.1,0.1-14.1,0-21.2
	c0-2.3,0.8-2.9,3-2.9c17.3,0.1,34.7,0.1,52,0c2.2,0,3.1,0.5,3,2.9c-0.1,7.1-0.1,14.1,0,21.2c0,2.4-0.9,2.9-3,2.8
	C87.2,54.4,78.4,54.4,69.6,54.4z"/>
<path id="path16" class="st0" d="M152.3,136.7c0-8.5,0.1-17.1-0.1-25.6c-0.1-2.7,0.8-3.4,3.4-3.3c6.8,0.2,13.6,0.2,20.4,0
	c2.4-0.1,3.2,0.6,3.2,3.1c-0.1,17.3-0.1,34.7,0,52c0,2.4-0.8,2.9-3,2.8c-6.9-0.1-13.9-0.1-20.8,0c-2.4,0.1-3.2-0.6-3.1-3.1
	C152.4,154,152.3,145.4,152.3,136.7z"/>
<path id="path18" class="st0" d="M14.5,40.5c0-7.7,0.1-15.5-0.1-23.2c-0.1-2.6,0.8-3,3.1-3c10.2,0,10.2-0.1,10.2,10
	c0,13.3-0.1,26.7,0.1,40c0,2.9-0.8,3.5-3.6,3.5c-9.7-0.1-9.7,0-9.7-9.6C14.5,52.3,14.5,46.4,14.5,40.5z"/>
<path id="path20" class="st0" d="M165.8,192.3c-7.7,0-15.5-0.1-23.2,0.1c-2.6,0.1-3.7-0.4-3.6-3.4c0.1-9.9,0-9.9,9.9-9.9
	c13.5,0,26.9,0.1,40.4-0.1c2.3,0,3.2,0.4,3.2,3c0.1,10.3,0.2,10.3-10.3,10.3C176.8,192.3,171.3,192.3,165.8,192.3z"/>
<path id="path22" class="st0" d="M54.5,149.7c0-4.3,0.1-8.5,0-12.8c-0.1-1.9,0.5-2.5,2.4-2.5c7.3,0.1,14.6,0.1,21.9,0
	c1.7,0,2.3,0.4,2.3,2.2c-0.1,8.9-0.1,17.8,0,26.7c0,2.1-0.9,2.3-2.6,2.3c-7.2-0.1-14.4-0.1-21.5,0c-1.9,0-2.6-0.5-2.5-2.4
	C54.6,158.8,54.5,154.3,54.5,149.7z"/>
<path id="path24" class="st0" d="M67.8,121.1c-7.9,0-15.7-0.1-23.6,0c-2.2,0-3.2-0.2-3.3-2.9c-0.1-10.3-0.2-10.3,10.2-10.3
	c13.2,0,26.4,0.1,39.6-0.1c2.7,0,3.9,0.3,3.9,3.6c-0.2,9.7,0,9.7-9.6,9.7C79.3,121.1,73.6,121.1,67.8,121.1z"/>
<path id="path26" class="st0" d="M67.4,192.3c-7.7,0-15.5-0.1-23.2,0c-2.2,0-3.2-0.2-3.3-2.9c-0.1-10.3-0.2-10.3,10.2-10.3
	c13.2,0,26.4,0.1,39.6-0.1c2.7,0,3.9,0.3,3.9,3.6c-0.2,9.7,0,9.7-9.6,9.7C79.2,192.3,73.3,192.3,67.4,192.3z"/>
</svg>
