<?xml version="1.0" encoding="utf-8"?>
<!-- Generator: Adobe Illustrator 22.0.1, SVG Export Plug-In . SVG Version: 6.00 Build 0)  -->
<svg version="1.1"
	 id="Warstwa_1" xmlns:cc="http://creativecommons.org/ns#" xmlns:dc="http://purl.org/dc/elements/1.1/" xmlns:rdf="http://www.w3.org/1999/02/22-rdf-syntax-ns#" xmlns:svg="http://www.w3.org/2000/svg"
	 xmlns="http://www.w3.org/2000/svg" xmlns:xlink="http://www.w3.org/1999/xlink" x="0px" y="0px" viewBox="0 0 205.1 204.6"
	 style="enable-background:new 0 0 205.1 204.6;" xml:space="preserve">
<style type="text/css">
	.st0{fill:#FFFFFF;}
</style>
<g id="g30">
	<g id="g28">
		<path id="path4" class="st0" d="M204.8,70c0-12.3-5-22.9-14.8-31.6c-9.7-8.5-19.3-17-29.1-25.4c-0.6-0.5-1.3-1-1.8-1.5
			s-1.3-1-1.9-1.4c-0.5-0.3-0.8-0.6-1.3-0.9c-2.5-1.7-5.1-3.2-7.9-4.4c-5.4-2.4-11.1-3.9-17.4-4.4c-0.5,0-0.8-0.1-1.3-0.1
			c-0.3,0-0.8,0-1.1-0.1c-0.3,0-0.8,0-1.3,0c-0.5,0-0.9,0-1.5,0H21C7.5,0.2,0.2,6.6,0.2,18.4c0,7.9,0,15.7,0,23.6
			c0,47.2,0,94.4-0.2,141.6c0,8.2,2.1,14.6,8.8,18.9c0.2,0.1,0.5,0.3,0.7,0.4c0,0,0.1,0,0.1,0.1c0.5,0.3,1,0.6,1.5,0.8
			c0.9,0.4,1.8,0.8,2.7,1.2h176.3c11-3.4,14.8-10.2,14.7-20.2C204.6,146.5,204.8,108.3,204.8,70z M181.7,51.4c-10.5,0-22-0.1-33.4,0
			c-0.2,0-0.5,0-0.7,0c-0.1,0-0.1,0-0.2,0c-0.1,0-0.2-0.1-0.3-0.1c-0.3-0.1-0.5-0.3-0.6-0.6c0-0.1-0.1-0.2-0.1-0.3
			c0-0.2-0.1-0.5-0.1-0.8V20.3C158,30.6,170,41.1,181.7,51.4z M185.2,192.3h-0.2c-54.8,0-109.7-0.1-164.5,0h-0.2
			c-4.5,0-5.4-1.9-5.4-5.3v-84.8c0-27.8,0-55.5-0.2-83.2c0-4.9,0.5-5.8,4.9-6c0.6,0,1.3,0,2.1,0c34.8,0,69.6,0,104.3-0.1h0.2
			c0.2,0,0.3,0,0.6,0c3.8,0.1,5.1,1,5,5c-0.3,14,0,28-0.2,42c0,3,0.5,4.3,3.9,4.4c0.3,0,0.7,0,1.1,0c16.4-0.3,32.9,0,49.3-0.2
			c0.1,0,0.2,0,0.3,0c0.2,0,0.3,0,0.6,0c0.1,0,0.3,0,0.5,0c2.2,0.2,3,1.1,3,3.6c-0.1,40,0,80,0,120c0,3.1-1.4,4.3-4.6,4.5
			C185.5,192.3,185.3,192.3,185.2,192.3z"/>
		<path class="st0" d="M9.5,202.9C2.2,198.6,0,192.1,0,183.6C0.3,136.3,0.2,89.2,0.2,42c0,47.2,0.2,94.4-0.1,141.6
			C0,192,2.3,198.6,9.5,202.9z"/>
		<path class="st0" d="M130.6,0.4c6.2,0.5,12,2,17.4,4.4C142.6,2.4,136.9,0.9,130.6,0.4z"/>
		<path id="path8" class="st0" d="M190.4,67.8c0-2.6-0.9-3.5-3.2-3.6c2.2,0.2,3,1.1,3,3.6c-0.1,40,0,80,0,120c0,3.1-1.4,4.3-4.6,4.5
			c3.2-0.1,4.8-1.3,4.8-4.5C190.3,147.8,190.3,107.8,190.4,67.8z M20.4,192.3h164.5C130.1,192.3,75.2,192.2,20.4,192.3z
			 M178.3,131.5c-2.7,3.3-6.7,3.3-10.7,3.1c-11.2-0.4-21.9-3-31.3-7.8c-7.9-4.1-15.2-2.3-22.7-1c-12.8,2.3-25.5,5.1-37.9,8.5
			c-2.4,0.6-3.9,1.7-5.1,3.5c-6.5,9.1-12.4,18.6-21.7,26c-6.8,5.6-12.6,6.6-19.3,3.7c-3.9-1.7-5.5-3.6-4.7-6.6
			c-0.8,3.1,0.7,5.1,4.6,6.8c6.6,2.9,12.4,1.8,19.3-3.7c9.2-7.4,15.2-16.9,21.7-26c1.3-1.8,2.7-2.8,5.1-3.5
			c12.4-3.5,25.1-6.3,37.9-8.5c7.5-1.3,14.7-3.1,22.7,1c9.5,4.8,20.2,7.4,31.3,7.8c4,0.2,8,0.2,10.7-3.1c0.5-0.5,0.8-1.1,1.1-1.7
			C179.1,130.5,178.8,131,178.3,131.5z M131.7,59.9c0.2-14-0.1-28,0.2-42c0.1-4.1-1.4-4.9-5.3-5c3.8,0.1,5.1,1,5,5
			c-0.3,14,0,28-0.2,42c0,3,0.5,4.3,3.9,4.4C132.2,64.1,131.7,62.8,131.7,59.9z M88.7,79.9c-2.9-9.1-5.1-18.3-5.7-27.8
			c-0.2-2.4-0.2-4.8,0.1-7.2c0.2-1.9,0.7-3.4,1.3-4.6c-0.7,1.3-1.1,2.9-1.4,4.8c-0.3,2.4-0.2,4.8-0.1,7.2c0.6,9.5,2.9,18.7,5.7,27.8
			c0.8,2.7,0.5,5.1-0.8,7.6c-0.1,0.2-0.1,0.3-0.2,0.5c0.1-0.2,0.2-0.5,0.3-0.7C89.3,85,89.5,82.6,88.7,79.9z M25.7,158.6
			c-0.1,0.1-0.1,0.2-0.1,0.3c0.1-0.2,0.1-0.4,0.2-0.5C25.8,158.4,25.7,158.5,25.7,158.6z"/>
		<path class="st0" d="M181.7,51.4h-33.4C159.7,51.3,171.2,51.4,181.7,51.4z"/>
		<path id="path12" class="st0" d="M172,115.4c-1.6-0.4-3.3-0.7-4.9-0.9c-10-1.5-20.1-0.6-30,0.5c-3.1,0.4-5.5,0-8.1-1.5
			c-13.7-7.7-21.9-19.2-28-32.1c-0.6-1.2-0.1-2.3,0.1-3.5c1.1-5.9,2.2-11.9,3-17.9c0.5-3.6,0.9-7.3,1.1-11.1c0-0.2,0-0.3,0-0.5
			c-0.1-1.1-0.1-2.4-0.5-3.7c-1.3-6-5-8.9-11.3-8.8c-4.5,0.1-7.2,1.2-8.8,3.8c-0.1,0.2-0.2,0.4-0.3,0.6c-0.7,1.3-1.1,2.9-1.4,4.8
			c-0.3,2.4-0.2,4.8-0.1,7.2c0.6,9.5,2.9,18.7,5.7,27.8c0.8,2.7,0.5,5.1-0.8,7.6c-0.1,0.2-0.1,0.3-0.2,0.5c-0.1,0.2-0.2,0.5-0.3,0.7
			c-6.1,11.9-13,23.3-19.7,35c0,0.1-0.1,0.1-0.1,0.2c-0.2,0.3-0.3,0.7-0.6,1c-3.7,6-8.2,10.4-15.5,13.2c-4.1,1.5-7.9,4-11.4,6.4
			c-5.3,3.7-10.4,7.5-13.5,12.8c-0.1,0.3-0.3,0.6-0.5,0.9c0,0.1-0.1,0.1-0.1,0.2c-0.1,0.1-0.1,0.2-0.1,0.3c-0.1,0.2-0.1,0.4-0.2,0.5
			c-0.1,0.2-0.1,0.3-0.2,0.5c-0.1,0.2-0.1,0.3-0.1,0.5s-0.1,0.3-0.1,0.5c-0.8,3.1,0.7,5.1,4.6,6.8c6.6,2.9,12.4,1.8,19.3-3.7
			c9.2-7.4,15.2-16.9,21.7-26c1.3-1.8,2.7-2.8,5.1-3.5c12.4-3.5,25.1-6.3,37.9-8.5c7.5-1.3,14.7-3.1,22.7,1
			c9.5,4.8,20.2,7.4,31.3,7.8c4,0.2,8,0.2,10.7-3.1c0.5-0.5,0.8-1.1,1.1-1.7C182.7,124.2,179.6,117.4,172,115.4z M168.2,122.2h0.1
			c0.3,0.1,0.7,0.1,1,0.2c1.4,0.3,2.7,0.6,3.9,1.1c1,0.5,2.2,1.2,1.9,2.4c-0.3,1.3-1.8,1.3-3,1.4c-0.5,0-0.9,0.1-1.5,0.1
			c-0.5,0-0.9,0-1.3,0c-0.5,0-0.9,0-1.4,0c-0.1,0-0.2,0-0.3,0c-0.6,0-1.1-0.1-1.6-0.2c-0.6-0.1-1-0.1-1.6-0.2
			c-1.1-0.2-2.2-0.4-3.3-0.7c-0.5-0.1-1-0.3-1.5-0.4c-0.3-0.1-0.8-0.2-1.1-0.4c-0.3-0.1-0.8-0.3-1.1-0.4c-0.8-0.3-1.6-0.5-2.3-0.8
			c-1.5-0.5-3-1-4.5-1.5c-0.5-0.2-1-0.3-1.5-0.5C155.5,121.6,161.6,121,168.2,122.2z M94.1,42.5c0.1-0.8-0.3-2.1,1.3-2.1
			c1.1,0,1.7,1,2.1,1.9c0.2,0.5,0.5,1,0.7,1.6c0.1,0.3,0.2,0.6,0.3,0.9c0,0.1,0.1,0.2,0.1,0.3c0.1,0.4,0.3,0.9,0.5,1.3
			c0.1,0.4,0.2,0.9,0.3,1.3c0.1,0.4,0.2,0.9,0.2,1.3c0,0.1,0,0.1,0,0.2c0.9,5.8-0.1,11.6-3.2,17.3c-0.6-1.8-1-3.6-1.4-5.4
			C93.6,54.9,93,48.7,94.1,42.5z M77.6,126.6c0,0,0.1-0.1,0.2-0.1l0,0c0,0,0,0,0.1,0c5.6-10.4,12.3-20.2,17.1-31.9v-0.1
			c6.2,8.9,12.9,16.6,22.5,23.1c-1.1,0.3-2.4,0.5-3.5,0.8c-0.6,0.1-1.1,0.2-1.6,0.3c-5.8,1.2-11.5,2.4-17.2,3.7
			c-1.7,0.4-3.3,0.8-4.9,1.2c-4,1-7.9,2.1-11.8,3.4c-0.3,0.2-0.6,0.3-0.8,0.2c-0.1,0-0.1-0.1-0.2-0.1l-0.1-0.1
			C77.2,126.9,77.4,126.7,77.6,126.6z M50.7,144.9c0.5-0.3,0.9-0.6,1.4-0.9l0,0c0.1-0.5,0.5-0.7,0.9-0.7h0.1c0-0.3,0.1-0.6,0.5-0.5
			l0,0c0.1,0,0.1,0,0.2,0c0.1,0-0.1,0.6-0.2,0.9c-0.2,0.3-0.5,0.6-0.6,0.7c-3.7,5-7.4,9.9-12.4,13.7c-0.5,0.3-0.8,0.6-1.3,0.9
			c-0.5,0.3-0.9,0.6-1.3,0.9c-0.9,0.6-1.8,1.1-2.7,1.6c3.7-6.4,8.6-11.8,14.8-16.2C50.5,145.1,50.6,145,50.7,144.9z"/>
		<path class="st0" d="M95,94.6c-4.8,11.7-11.5,21.5-17.1,31.9c0.1,0.2,0.2,0.3,0.5,0.5c0,0,0,0-0.1,0c-0.1-0.2-0.2-0.3-0.5-0.5l0,0
			c5.6-10.4,12.3-20.3,17.1-32C94.9,94.5,94.9,94.5,95,94.6z"/>
		<path class="st0" d="M112.3,118.7c-5.8,1.2-11.5,2.4-17.2,3.7C100.7,121.1,106.4,119.9,112.3,118.7z"/>
		<path class="st0" d="M99.2,47.7c-0.2-0.9-0.5-1.8-0.7-2.7C98.7,45.9,99,46.8,99.2,47.7z"/>
		<path class="st0" d="M149.1,122.4c6.4-0.9,12.8-1.4,19.1-0.1C161.6,121,155.5,121.6,149.1,122.4z"/>
		<path class="st0" d="M155,124.4c4.1,1.5,8.2,2.8,12.7,3.1c-4.5-0.3-8.7-1.6-12.8-3.1c-1.5-0.5-2.9-1-4.3-1.5
			C152.1,123.4,153.5,123.8,155,124.4z"/>
		<path class="st0" d="M50.3,145.3c-6.3,4.5-11.3,9.8-14.8,16.2c0.9-0.5,1.8-1,2.7-1.6c-0.9,0.6-1.8,1.2-2.9,1.7
			C38.9,155.1,44,149.7,50.3,145.3z"/>
		<path class="st0" d="M52.9,144.4C52.9,144.4,52.9,144.5,52.9,144.4c-0.1,0-0.2-0.1-0.3-0.2C52.6,144.3,52.7,144.4,52.9,144.4z"/>
		<path class="st0" d="M78.3,127c-0.3,0.2-0.7,0.4-1,0l-0.1-0.1c0,0,0.2-0.1,0.5-0.3c0,0,0.1-0.1,0.2-0.1l0,0c0,0,0,0,0.1,0
			C78,126.7,78.1,126.8,78.3,127C78.3,126.9,78.3,127,78.3,127z"/>
		<path id="path24" class="st0" d="M53.1,143.3c0-0.4,0.1-0.8,0.7-0.5c0.1,0-0.1,0.6-0.2,0.9C53.4,143.6,53.3,143.5,53.1,143.3z"/>
		<path class="st0" d="M53.5,143.7c-0.2,0.3-0.5,0.5-0.7,0.8l0,0c-0.1,0-0.2-0.1-0.3-0.2l0,0c-0.1-0.1-0.2-0.2-0.3-0.3l0,0
			c0.1-0.5,0.5-0.7,1-0.7l0,0C53.2,143.4,53.4,143.5,53.5,143.7z"/>
	</g>
</g>
</svg>
